<svg xmlns="http://www.w3.org/2000/svg" width="23.63" height="20" viewBox="0 0 23.63 20">
  <path id="ic_cart-01" d="M23.393,18.285a.886.886,0,0,1-.584.3L7.991,20.322a1.711,1.711,0,0,0,.064.3c.033.137.061.262.087.376a1.753,1.753,0,0,1,.035.314,2.677,2.677,0,0,1-.345.907H20.9a.881.881,0,0,1,.643.272.91.91,0,0,1-.643,1.548H6.358a.865.865,0,0,1-.638-.272.879.879,0,0,1-.272-.638,1.576,1.576,0,0,1,.156-.562,9.239,9.239,0,0,1,.421-.844c.184-.321.274-.5.291-.541L3.8,9.5H.9A.87.87,0,0,1,.267,9.23a.9.9,0,0,1,0-1.278A.865.865,0,0,1,.9,7.68H4.541a.907.907,0,0,1,.4.092.886.886,0,0,1,.284.222,1.085,1.085,0,0,1,.187.347,2.753,2.753,0,0,1,.1.376c.024.1.045.236.078.421s.057.3.064.362H22.719a.874.874,0,0,1,.64.269.865.865,0,0,1,.269.64V17.68A.9.9,0,0,1,23.393,18.285ZM21.809,25.86a1.81,1.81,0,1,1-.529-1.285,1.749,1.749,0,0,1,.529,1.285Zm-12.724,0a1.819,1.819,0,1,1-.532-1.285,1.753,1.753,0,0,1,.532,1.285Z" transform="translate(0.001 -7.68)" fill-rule="evenodd"/>
</svg>
