<svg xmlns="http://www.w3.org/2000/svg" width="15.965" height="16" viewBox="0 0 15.965 16">
  <path id="ic_our_stockist" d="M1539,82.731c0-1,1.957-1.934,4.759-2.264a.266.266,0,1,1,.063.528c-2.8.33-4.289,1.22-4.289,1.735,0,.724,2.835,1.734,7.45,1.734s7.451-1.009,7.451-1.734c0-.515-1.49-1.4-4.288-1.735a.266.266,0,0,1-.233-.3.263.263,0,0,1,.294-.233c2.8.33,4.759,1.262,4.759,2.264,0,1.126-2.741,2.267-7.983,2.267S1539,83.857,1539,82.731Zm3.847-5.047a5.838,5.838,0,0,1,.48-7.188,5.1,5.1,0,0,1,7.217,0,5.839,5.839,0,0,1,.474,7.2l-4.083,5.908Zm2.273-3.619a1.863,1.863,0,1,0,1.862-1.866A1.867,1.867,0,0,0,1545.117,74.065Z" transform="translate(-1538.996 -68.999)"/>
</svg>
