<svg xmlns="http://www.w3.org/2000/svg" width="32.751" height="18" viewBox="0 0 32.751 18">
  <path id="ic_quick_order-01" d="M30.309,40.57H16.469a2.625,2.625,0,0,1-2.625-2.625V25.208a2.625,2.625,0,0,1,2.625-2.625h1.946v5.283a2.9,2.9,0,0,0,.236,1.158,2.953,2.953,0,0,0,1.073,1.312,2.838,2.838,0,0,0,.778.374,2.9,2.9,0,0,0,.883.135h4a2.953,2.953,0,0,0,2.461-1.312,2.858,2.858,0,0,0,.374-.781,2.927,2.927,0,0,0,.135-.886v-5.3h1.952a2.625,2.625,0,0,1,2.625,2.625V37.932a2.625,2.625,0,0,1-2.625,2.638ZM25.83,28.525a.758.758,0,0,1-.207.1.778.778,0,0,1-.236.033h-4a.732.732,0,0,1-.308-.062.8.8,0,0,1-.348-.285.863.863,0,0,1-.1-.207.814.814,0,0,1-.033-.24v-5.3h5.578v5.3a.784.784,0,0,1-.351.656ZM11.278,37.653H1.337a1.217,1.217,0,0,1,0-2.431h9.942a1.217,1.217,0,1,1,0,2.431Zm0-4.866H3.765a1.217,1.217,0,1,1,0-2.435h7.514a1.217,1.217,0,0,1,0,2.435Zm0-4.869H6.193a1.217,1.217,0,0,1,0-2.431h5.086a1.217,1.217,0,1,1,0,2.431Z" transform="translate(-0.182 -22.57)" fill-rule="evenodd"/>
</svg>
