<svg xmlns="http://www.w3.org/2000/svg" width="26.018" height="15.996" viewBox="0 0 26.018 15.996">
  <path id="ic_truck.svg" d="M1804.995,21h-.157a1.473,1.473,0,0,0-.5-1.089l-4.909-4.464a1.74,1.74,0,0,0-1.172-.441h-2.474v-.855A1.2,1.2,0,0,0,1794.548,13h-14.319a1.2,1.2,0,0,0-1.251,1.137v.01l.135,6.85Zm-7.744-4.491a.189.189,0,0,1,.2-.179h.9a.216.216,0,0,1,.139.051l3.843,3.372a.169.169,0,0,1,.009.254.2.2,0,0,1-.141.056h-4.751a.187.187,0,0,1-.194-.18V16.507Zm7.744,5.634-.157,2.873a1.2,1.2,0,0,1-1.238,1.148h-1.349a3.4,3.4,0,0,0-3.895-2.658,3.3,3.3,0,0,0-2.893,2.658h-6.778A3.394,3.394,0,0,0,1784.8,23.5a3.3,3.3,0,0,0-2.895,2.661h-1.673a1.2,1.2,0,0,1-1.251-1.138v-.01l.135-2.873Zm-6.138,2.092a2.391,2.391,0,1,0,2.592,2.384v0a2.494,2.494,0,0,0-2.593-2.38Zm0,3.574a1.2,1.2,0,1,1,1.3-1.19h0a1.247,1.247,0,0,1-1.3,1.19h0Zm-13.563-3.574a2.391,2.391,0,1,0,2.591,2.384v0A2.5,2.5,0,0,0,1785.294,24.232Zm0,3.574a1.2,1.2,0,1,1,1.3-1.194,1.249,1.249,0,0,1-1.3,1.194Z" transform="translate(-1778.977 -13.001)"/>
</svg>
