<svg xmlns="http://www.w3.org/2000/svg" width="22" height="18" viewBox="0 0 22 18">
  <g id="Union_1" data-name="Union 1" transform="translate(1352)" fill="#fff">
    <path d="M -1334.499877929688 17.5 L -1351.499877929688 17.5 L -1351.499877929688 16.50020027160645 L -1334.499877929688 16.50020027160645 L -1334.499877929688 17.5 Z M -1330.500244140625 9.499899864196777 L -1351.499877929688 9.499899864196777 L -1351.499877929688 8.500100135803223 L -1330.500244140625 8.500100135803223 L -1330.500244140625 9.499899864196777 Z M -1330.500244140625 1.499799966812134 L -1351.499877929688 1.499799966812134 L -1351.499877929688 0.5 L -1330.500244140625 0.5 L -1330.500244140625 1.499799966812134 Z" stroke="none"/>
    <path d="M -1333.999877929688 18 L -1351.999877929688 18 L -1351.999877929688 16.00020027160645 L -1333.999877929688 16.00020027160645 L -1333.999877929688 18 Z M -1330.000244140625 9.999899864196777 L -1351.999877929688 9.999899864196777 L -1351.999877929688 8.000100135803223 L -1330.000244140625 8.000100135803223 L -1330.000244140625 9.999899864196777 Z M -1330.000244140625 1.999799966812134 L -1351.999877929688 1.999799966812134 L -1351.999877929688 0 L -1330.000244140625 0 L -1330.000244140625 1.999799966812134 Z" stroke="none" fill="#000"/>
  </g>
</svg>
